#!OML:ASF H:\MichaelJackson\Top Level 1\Subject 1\Session 1\male.ASF
:FULLY-SPECIFIED
:DEGREES
44
root 6.05162 16.7798 -14.681 10.6766 3.24656 -0.391068
lowerback -3.49552 0.462784 -0.866302
upperback 0.0711398 0.651864 0.0423323
thorax 2.02205 0.31637 0.562887
lowerneck -5.77638 -2.38104 -0.733003
upperneck -5.54252 -3.01825 3.96071
head -0.673712 -1.51001 1.3077
rclavicle -3.29237e-015 -1.25234e-014
rhumerus -40.7428 1.98029 -95.5316
rradius 38.541
rwrist 7.45465
rhand -30.6081 -21.2554
rfingers 7.12502
rthumb -3.90472 -51.1994
lclavicle -3.29237e-015 -1.25234e-014
lhumerus -40.373 -9.5194 97.6027
lradius 39.9964
lwrist 12.7667
lhand -11.8803 5.29938
lfingers 7.12502
lthumb 14.1724 34.7959
rfemur -25.6686 2.47223 21.904
rtibia 39.0593
rfoot -24.2893 -10.846
rtoes 20.8562
lfemur -25.8026 0.410961 -22.0037
ltibia 38.3804
lfoot -24.8635 1.56363
ltoes 17.0293
45
root 6.05157 16.7752 -14.6836 10.9401 3.28872 -0.39857
lowerback -3.36854 0.492125 -0.816555
upperback 0.0440125 0.688224 0.0134867
thorax 1.92334 0.335707 0.505808
lowerneck -5.65445 -2.40759 -0.650633
upperneck -5.83687 -3.04889 3.94437
head -0.785857 -1.5313 1.29345
rclavicle -1.1455e-014 -2.28602e-015
rhumerus -40.6819 1.94186 -95.5619
rradius 38.6069
rwrist 7.49496
rhand -30.5618 -21.3359
rfingers 7.12502
rthumb -3.85999 -51.2807
lclavicle -1.1455e-014 -2.28602e-015
lhumerus -40.3043 -9.77052 97.5926
lradius 40.0604
lwrist 12.851
lhand -11.9165 5.34014
lfingers 7.12502
lthumb 14.1375 34.8392
rfemur -26.0466 2.53012 21.9056
rtibia 39.2129
rfoot -24.4614 -10.7912
rtoes 21.4951
lfemur -26.1904 0.239038 -21.9772
ltibia 38.5295
lfoot -24.9126 1.62199
ltoes 17.1396
46
root 6.05173 16.7701 -14.687 11.2255 3.33975 -0.4077
lowerback -3.23416 0.521434 -0.754949
upperback 0.0112212 0.724137 -0.0167776
thorax 1.81496 0.354919 0.440358
lowerneck -5.53041 -2.43514 -0.570214
upperneck -6.14275 -3.08006 3.93221
head -0.902113 -1.55308 1.28144
rclavicle -2.11209e-015 -3.97569e-016
rhumerus -40.624 1.90742 -95.5969
rradius 38.6869
rwrist 7.51011
rhand -30.564 -21.3968
rfingers 7.12502
rthumb -3.86207 -51.3415
lclavicle -2.11209e-015 -3.97569e-016
lhumerus -40.233 -10.039 97.5875
lradius 40.1337
lwrist 12.9391
lhand -11.9568 5.34017
lfingers 7.12502
lthumb 14.0986 34.8419
rfemur -26.4585 2.5845 21.9066
rtibia 39.3773
rfoot -24.5912 -10.7823
rtoes 21.8562
lfemur -26.6177 0.0438039 -21.9474
ltibia 38.6985
lfoot -24.9615 1.69004
ltoes 17.2692
47
root 6.05205 16.7647 -14.6914 11.5377 3.39691 -0.419915
lowerback -3.09412 0.55238 -0.683657
upperback -0.0285324 0.761948 -0.0460412
thorax 1.6965 0.375114 0.370342
lowerneck -5.40597 -2.46477 -0.488962
upperneck -6.45999 -3.11352 3.91841
head -1.02234 -1.57625 1.26932
rclavicle 1.15047e-014 -9.83984e-015
rhumerus -40.5681 1.87361 -95.6312
rradius 38.7791
rwrist 7.51004
rhand -30.5958 -21.4424
rfingers 7.12502
rthumb -3.89284 -51.3866
lclavicle 1.15047e-014 -9.83984e-015
lhumerus -40.1655 -10.3242 97.5916
lradius 40.224
lwrist 13.0336
lhand -12.001 5.33914
lfingers 7.12502
lthumb 14.056 34.8438
rfemur -26.9125 2.63732 21.9089
rtibia 39.5545
rfoot -24.7171 -10.7733
rtoes 22.2236
lfemur -27.0898 -0.172796 -21.9121
ltibia 38.8903
lfoot -25.0159 1.77257
ltoes 17.3963
48
root 6.05253 16.7586 -14.6969 11.8776 3.45715 -0.43727
lowerback -2.94024 0.584436 -0.597885
upperback -0.0792295 0.80081 -0.0759225
thorax 1.55942 0.395908 0.291226
lowerneck -5.28662 -2.49211 -0.411775
upperneck -6.78204 -3.14316 3.91063
head -1.14366 -1.59755 1.26021
rclavicle -1.85367e-014 -8.94531e-016
rhumerus -40.5177 1.83868 -95.6654
rradius 38.8836
rwrist 7.52287
rhand -30.6094 -21.4991
rfingers 7.12502
rthumb -3.90598 -51.4431
lclavicle -1.85367e-014 -8.94531e-016
lhumerus -40.0868 -10.6253 97.5998
lradius 40.3126
lwrist 13.1357
lhand -12.0444 5.33068
lfingers 7.12502
lthumb 14.0142 34.8383
rfemur -27.4111 2.69571 21.9145
rtibia 39.747
rfoot -24.8433 -10.756
rtoes 22.6312
lfemur -27.6088 -0.401562 -21.8695
ltibia 39.1085
lfoot -25.0795 1.87013
ltoes 17.4947
49
root 6.05302 16.7519 -14.7038 12.2429 3.52231 -0.461565
lowerback -2.7661 0.616443 -0.498727
upperback -0.139413 0.839292 -0.104927
thorax 1.40165 0.416498 0.204991
lowerneck -5.18051 -2.51711 -0.332715
upperneck -7.10601 -3.16951 3.90256
head -1.26404 -1.61726 1.25086
rclavicle -8.27441e-015 1.16289e-014
rhumerus -40.4718 1.80732 -95.7004
rradius 39.0025
rwrist 7.53879
rhand -30.5898 -21.5708
rfingers 7.12502
rthumb -3.88703 -51.5151
lclavicle -8.27441e-015 1.16289e-014
lhumerus -40.0115 -10.931 97.6086
lradius 40.418
lwrist 13.2373
lhand -12.0785 5.3205
lfingers 7.12502
lthumb 13.9813 34.8303
rfemur -27.9529 2.76214 21.9264
rtibia 39.9579
rfoot -24.9771 -10.7324
rtoes 23.0801
lfemur -28.1761 -0.62962 -21.8168
ltibia 39.3574
lfoot -25.1542 1.96035
ltoes 17.5833
